<svg xmlns="http://www.w3.org/2000/svg" xmlns:xlink="http://www.w3.org/1999/xlink" width="500" zoomAndPan="magnify" viewBox="0 0 375 374.999991" height="500" preserveAspectRatio="xMidYMid meet" version="1.0"><defs><g><g id="id1"/></g></defs><rect x="-37.5" width="450" fill="rgb(100%, 100%, 100%)" y="-37.499999" height="449.999989" fill-opacity="1"/><rect x="-37.5" width="450" fill="rgb(21.958923%, 71.369934%, 100%)" y="-37.499999" height="449.999989" fill-opacity="1"/><rect x="-37.5" width="450" fill="rgb(100%, 100%, 100%)" y="-37.499999" height="449.999989" fill-opacity="1"/><rect x="-37.5" width="450" fill="rgb(21.958923%, 71.369934%, 100%)" y="-37.499999" height="449.999989" fill-opacity="1"/><g fill="rgb(100%, 100%, 100%)" fill-opacity="1"><g transform="translate(16.85937, 170.399989)"><g><path d="M 3.234375 -44.546875 L 17.0625 -44.546875 C 21.238281 -44.546875 24.566406 -43.65625 27.046875 -41.875 C 29.535156 -40.09375 30.78125 -37.203125 30.78125 -33.203125 C 30.78125 -28.742188 28.925781 -25.5625 25.21875 -23.65625 C 31.550781 -22.539062 34.71875 -18.796875 34.71875 -12.421875 C 34.71875 -8.671875 33.421875 -5.660156 30.828125 -3.390625 C 28.242188 -1.128906 24.679688 0 20.140625 0 L 3.234375 0 Z M 13.390625 -27.109375 L 14.203125 -27.109375 C 16.472656 -27.109375 18.164062 -27.503906 19.28125 -28.296875 C 20.394531 -29.085938 20.953125 -30.382812 20.953125 -32.1875 C 20.953125 -35.207031 18.703125 -36.71875 14.203125 -36.71875 L 13.390625 -36.71875 Z M 13.390625 -7.828125 L 16.578125 -7.828125 C 21.546875 -7.828125 24.03125 -9.484375 24.03125 -12.796875 C 24.03125 -14.773438 23.40625 -16.195312 22.15625 -17.0625 C 20.914062 -17.925781 19.054688 -18.359375 16.578125 -18.359375 L 13.390625 -18.359375 Z M 13.390625 -7.828125 "/></g></g></g><g fill="rgb(100%, 100%, 100%)" fill-opacity="1"><g transform="translate(52.823376, 170.399989)"><g><path d="M 31.265625 -12.53125 L 11.171875 -12.53125 C 11.171875 -10.582031 11.800781 -9.140625 13.0625 -8.203125 C 14.320312 -7.265625 15.691406 -6.796875 17.171875 -6.796875 C 18.722656 -6.796875 19.945312 -7.003906 20.84375 -7.421875 C 21.738281 -7.835938 22.765625 -8.65625 23.921875 -9.875 L 30.828125 -6.421875 C 27.953125 -1.597656 23.164062 0.8125 16.46875 0.8125 C 12.289062 0.8125 8.707031 -0.617188 5.71875 -3.484375 C 2.726562 -6.347656 1.234375 -9.796875 1.234375 -13.828125 C 1.234375 -17.859375 2.726562 -21.3125 5.71875 -24.1875 C 8.707031 -27.070312 12.289062 -28.515625 16.46875 -28.515625 C 20.863281 -28.515625 24.4375 -27.242188 27.1875 -24.703125 C 29.9375 -22.160156 31.3125 -18.535156 31.3125 -13.828125 C 31.3125 -13.179688 31.296875 -12.75 31.265625 -12.53125 Z M 11.453125 -17.8125 L 21.984375 -17.8125 C 21.765625 -19.257812 21.195312 -20.367188 20.28125 -21.140625 C 19.363281 -21.910156 18.179688 -22.296875 16.734375 -22.296875 C 15.148438 -22.296875 13.890625 -21.878906 12.953125 -21.046875 C 12.023438 -20.222656 11.523438 -19.144531 11.453125 -17.8125 Z M 11.453125 -17.8125 "/></g></g></g><g fill="rgb(100%, 100%, 100%)" fill-opacity="1"><g transform="translate(85.385386, 170.399989)"><g><path d="M 4.859375 -27.703125 L 4.859375 -38.015625 L 14.421875 -38.015625 L 14.421875 -27.703125 L 20.25 -27.703125 L 20.25 -20.40625 L 14.421875 -20.40625 L 14.421875 -11.609375 C 14.421875 -9.054688 15.140625 -7.78125 16.578125 -7.78125 C 16.941406 -7.78125 17.320312 -7.847656 17.71875 -7.984375 C 18.113281 -8.128906 18.414062 -8.273438 18.625 -8.421875 L 18.953125 -8.640625 L 21.328125 -0.921875 C 19.273438 0.234375 16.9375 0.8125 14.3125 0.8125 C 12.507812 0.8125 10.957031 0.5 9.65625 -0.125 C 8.363281 -0.757812 7.382812 -1.609375 6.71875 -2.671875 C 6.050781 -3.734375 5.570312 -4.847656 5.28125 -6.015625 C 5 -7.191406 4.859375 -8.445312 4.859375 -9.78125 L 4.859375 -20.40625 L 0.859375 -20.40625 L 0.859375 -27.703125 Z M 4.859375 -27.703125 "/></g></g></g><g fill="rgb(100%, 100%, 100%)" fill-opacity="1"><g transform="translate(106.715398, 170.399989)"><g><path d="M 4.859375 -27.703125 L 4.859375 -38.015625 L 14.421875 -38.015625 L 14.421875 -27.703125 L 20.25 -27.703125 L 20.25 -20.40625 L 14.421875 -20.40625 L 14.421875 -11.609375 C 14.421875 -9.054688 15.140625 -7.78125 16.578125 -7.78125 C 16.941406 -7.78125 17.320312 -7.847656 17.71875 -7.984375 C 18.113281 -8.128906 18.414062 -8.273438 18.625 -8.421875 L 18.953125 -8.640625 L 21.328125 -0.921875 C 19.273438 0.234375 16.9375 0.8125 14.3125 0.8125 C 12.507812 0.8125 10.957031 0.5 9.65625 -0.125 C 8.363281 -0.757812 7.382812 -1.609375 6.71875 -2.671875 C 6.050781 -3.734375 5.570312 -4.847656 5.28125 -6.015625 C 5 -7.191406 4.859375 -8.445312 4.859375 -9.78125 L 4.859375 -20.40625 L 0.859375 -20.40625 L 0.859375 -27.703125 Z M 4.859375 -27.703125 "/></g></g></g><g fill="rgb(100%, 100%, 100%)" fill-opacity="1"><g transform="translate(128.04541, 170.399989)"><g><path d="M 31.265625 -12.53125 L 11.171875 -12.53125 C 11.171875 -10.582031 11.800781 -9.140625 13.0625 -8.203125 C 14.320312 -7.265625 15.691406 -6.796875 17.171875 -6.796875 C 18.722656 -6.796875 19.945312 -7.003906 20.84375 -7.421875 C 21.738281 -7.835938 22.765625 -8.65625 23.921875 -9.875 L 30.828125 -6.421875 C 27.953125 -1.597656 23.164062 0.8125 16.46875 0.8125 C 12.289062 0.8125 8.707031 -0.617188 5.71875 -3.484375 C 2.726562 -6.347656 1.234375 -9.796875 1.234375 -13.828125 C 1.234375 -17.859375 2.726562 -21.3125 5.71875 -24.1875 C 8.707031 -27.070312 12.289062 -28.515625 16.46875 -28.515625 C 20.863281 -28.515625 24.4375 -27.242188 27.1875 -24.703125 C 29.9375 -22.160156 31.3125 -18.535156 31.3125 -13.828125 C 31.3125 -13.179688 31.296875 -12.75 31.265625 -12.53125 Z M 11.453125 -17.8125 L 21.984375 -17.8125 C 21.765625 -19.257812 21.195312 -20.367188 20.28125 -21.140625 C 19.363281 -21.910156 18.179688 -22.296875 16.734375 -22.296875 C 15.148438 -22.296875 13.890625 -21.878906 12.953125 -21.046875 C 12.023438 -20.222656 11.523438 -19.144531 11.453125 -17.8125 Z M 11.453125 -17.8125 "/></g></g></g><g fill="rgb(100%, 100%, 100%)" fill-opacity="1"><g transform="translate(160.60742, 170.399989)"><g><path d="M 3.234375 0 L 3.234375 -27.703125 L 12.796875 -27.703125 L 12.796875 -23.703125 L 12.90625 -23.703125 C 12.976562 -23.847656 13.09375 -24.023438 13.25 -24.234375 C 13.414062 -24.453125 13.769531 -24.832031 14.3125 -25.375 C 14.851562 -25.914062 15.425781 -26.398438 16.03125 -26.828125 C 16.644531 -27.265625 17.4375 -27.65625 18.40625 -28 C 19.382812 -28.34375 20.378906 -28.515625 21.390625 -28.515625 C 22.429688 -28.515625 23.453125 -28.367188 24.453125 -28.078125 C 25.460938 -27.785156 26.203125 -27.5 26.671875 -27.21875 L 27.4375 -26.78125 L 23.4375 -18.6875 C 22.25 -19.695312 20.59375 -20.203125 18.46875 -20.203125 C 17.3125 -20.203125 16.316406 -19.945312 15.484375 -19.4375 C 14.660156 -18.9375 14.078125 -18.328125 13.734375 -17.609375 C 13.398438 -16.890625 13.160156 -16.273438 13.015625 -15.765625 C 12.867188 -15.265625 12.796875 -14.867188 12.796875 -14.578125 L 12.796875 0 Z M 3.234375 0 "/></g></g></g><g fill="rgb(100%, 100%, 100%)" fill-opacity="1"><g transform="translate(88.640624, 234.599985)"><g><path d="M 25.859375 -44.546875 L 43.84375 0 L 32.9375 0 L 29.640625 -8.90625 L 12.6875 -8.90625 L 9.390625 0 L -1.515625 0 L 16.46875 -44.546875 Z M 26.1875 -17.8125 L 21.21875 -30.78125 L 21.109375 -30.78125 L 16.140625 -17.8125 Z M 26.1875 -17.8125 "/></g></g></g><g fill="rgb(100%, 100%, 100%)" fill-opacity="1"><g transform="translate(130.976643, 234.599985)"><g><path d="M 3.234375 0 L 3.234375 -27.703125 L 12.796875 -27.703125 L 12.796875 -24.78125 L 12.90625 -24.78125 C 15.382812 -27.269531 18.03125 -28.515625 20.84375 -28.515625 C 22.207031 -28.515625 23.566406 -28.332031 24.921875 -27.96875 C 26.273438 -27.613281 27.570312 -27.054688 28.8125 -26.296875 C 30.050781 -25.535156 31.054688 -24.460938 31.828125 -23.078125 C 32.609375 -21.691406 33 -20.082031 33 -18.25 L 33 0 L 23.4375 0 L 23.4375 -15.65625 C 23.4375 -17.09375 22.976562 -18.351562 22.0625 -19.4375 C 21.144531 -20.519531 19.945312 -21.0625 18.46875 -21.0625 C 17.03125 -21.0625 15.722656 -20.503906 14.546875 -19.390625 C 13.378906 -18.273438 12.796875 -17.03125 12.796875 -15.65625 L 12.796875 0 Z M 3.234375 0 "/></g></g></g><g fill="rgb(100%, 100%, 100%)" fill-opacity="1"><g transform="translate(166.670648, 234.599985)"><g><path d="M 5.125 -3.421875 C 2.53125 -6.253906 1.234375 -9.722656 1.234375 -13.828125 C 1.234375 -17.929688 2.53125 -21.40625 5.125 -24.25 C 7.71875 -27.09375 11.015625 -28.515625 15.015625 -28.515625 C 18.679688 -28.515625 21.703125 -27.363281 24.078125 -25.0625 L 24.078125 -27.703125 L 33.640625 -27.703125 L 33.640625 0 L 24.1875 0 L 24.1875 -3.125 L 24.078125 -3.125 C 21.703125 -0.5 18.679688 0.8125 15.015625 0.8125 C 11.015625 0.8125 7.71875 -0.597656 5.125 -3.421875 Z M 13.25 -18.515625 C 12.007812 -17.296875 11.390625 -15.734375 11.390625 -13.828125 C 11.390625 -11.921875 11.984375 -10.363281 13.171875 -9.15625 C 14.359375 -7.945312 15.925781 -7.34375 17.875 -7.34375 C 19.75 -7.34375 21.285156 -7.953125 22.484375 -9.171875 C 23.691406 -10.398438 24.296875 -11.953125 24.296875 -13.828125 C 24.296875 -15.734375 23.675781 -17.296875 22.4375 -18.515625 C 21.195312 -19.742188 19.675781 -20.359375 17.875 -20.359375 C 16.039062 -20.359375 14.5 -19.742188 13.25 -18.515625 Z M 13.25 -18.515625 "/></g></g></g><g fill="rgb(100%, 100%, 100%)" fill-opacity="1"><g transform="translate(203.552664, 234.599985)"><g><path d="M 3.234375 0 L 3.234375 -46.4375 L 12.796875 -46.4375 L 12.796875 0 Z M 3.234375 0 "/></g></g></g><g fill="rgb(100%, 100%, 100%)" fill-opacity="1"><g transform="translate(219.590665, 234.599985)"><g><path d="M 24.25 -27.703125 L 35.265625 -27.703125 L 13.5 14.046875 L 2.484375 14.046875 L 12.046875 -4.3125 L -1.078125 -27.703125 L 9.9375 -27.703125 L 17.65625 -13.5 Z M 24.25 -27.703125 "/></g></g></g><g fill="rgb(100%, 100%, 100%)" fill-opacity="1"><g transform="translate(253.772677, 234.599985)"><g><path d="M 4.859375 -27.703125 L 4.859375 -38.015625 L 14.421875 -38.015625 L 14.421875 -27.703125 L 20.25 -27.703125 L 20.25 -20.40625 L 14.421875 -20.40625 L 14.421875 -11.609375 C 14.421875 -9.054688 15.140625 -7.78125 16.578125 -7.78125 C 16.941406 -7.78125 17.320312 -7.847656 17.71875 -7.984375 C 18.113281 -8.128906 18.414062 -8.273438 18.625 -8.421875 L 18.953125 -8.640625 L 21.328125 -0.921875 C 19.273438 0.234375 16.9375 0.8125 14.3125 0.8125 C 12.507812 0.8125 10.957031 0.5 9.65625 -0.125 C 8.363281 -0.757812 7.382812 -1.609375 6.71875 -2.671875 C 6.050781 -3.734375 5.570312 -4.847656 5.28125 -6.015625 C 5 -7.191406 4.859375 -8.445312 4.859375 -9.78125 L 4.859375 -20.40625 L 0.859375 -20.40625 L 0.859375 -27.703125 Z M 4.859375 -27.703125 "/></g></g></g><g fill="rgb(100%, 100%, 100%)" fill-opacity="1"><g transform="translate(275.102689, 234.599985)"><g><path d="M 4.15625 -43.140625 C 5.269531 -44.253906 6.597656 -44.8125 8.140625 -44.8125 C 9.691406 -44.8125 11.023438 -44.253906 12.140625 -43.140625 C 13.265625 -42.023438 13.828125 -40.691406 13.828125 -39.140625 C 13.828125 -37.597656 13.265625 -36.269531 12.140625 -35.15625 C 11.023438 -34.039062 9.691406 -33.484375 8.140625 -33.484375 C 6.597656 -33.484375 5.269531 -34.039062 4.15625 -35.15625 C 3.039062 -36.269531 2.484375 -37.597656 2.484375 -39.140625 C 2.484375 -40.691406 3.039062 -42.023438 4.15625 -43.140625 Z M 3.234375 -27.703125 L 3.234375 0 L 12.796875 0 L 12.796875 -27.703125 Z M 3.234375 -27.703125 "/></g></g></g><g fill="rgb(100%, 100%, 100%)" fill-opacity="1"><g transform="translate(291.410691, 234.599985)"><g><path d="M 17.984375 -20.6875 C 16.179688 -20.6875 14.628906 -20.019531 13.328125 -18.6875 C 12.035156 -17.351562 11.390625 -15.75 11.390625 -13.875 C 11.390625 -11.96875 12.035156 -10.347656 13.328125 -9.015625 C 14.628906 -7.679688 16.179688 -7.015625 17.984375 -7.015625 C 18.847656 -7.015625 19.664062 -7.125 20.4375 -7.34375 C 21.207031 -7.5625 21.773438 -7.773438 22.140625 -7.984375 L 22.625 -8.3125 L 25.859375 -1.671875 C 25.609375 -1.492188 25.257812 -1.269531 24.8125 -1 C 24.363281 -0.726562 23.335938 -0.359375 21.734375 0.109375 C 20.128906 0.578125 18.410156 0.8125 16.578125 0.8125 C 12.503906 0.8125 8.925781 -0.617188 5.84375 -3.484375 C 2.769531 -6.347656 1.234375 -9.773438 1.234375 -13.765625 C 1.234375 -17.796875 2.769531 -21.257812 5.84375 -24.15625 C 8.925781 -27.0625 12.503906 -28.515625 16.578125 -28.515625 C 18.410156 -28.515625 20.097656 -28.296875 21.640625 -27.859375 C 23.191406 -27.429688 24.296875 -27 24.953125 -26.5625 L 25.859375 -25.921875 L 22.625 -19.390625 C 21.4375 -20.253906 19.890625 -20.6875 17.984375 -20.6875 Z M 17.984375 -20.6875 "/></g></g></g><g fill="rgb(100%, 100%, 100%)" fill-opacity="1"><g transform="translate(317.924704, 234.599985)"><g><path d="M 15.28125 -28.515625 C 16.863281 -28.515625 18.425781 -28.332031 19.96875 -27.96875 C 21.519531 -27.613281 22.675781 -27.253906 23.4375 -26.890625 L 24.5625 -26.359375 L 21.4375 -20.09375 C 19.28125 -21.238281 17.226562 -21.8125 15.28125 -21.8125 C 14.195312 -21.8125 13.429688 -21.691406 12.984375 -21.453125 C 12.535156 -21.222656 12.3125 -20.785156 12.3125 -20.140625 C 12.3125 -19.992188 12.328125 -19.847656 12.359375 -19.703125 C 12.398438 -19.566406 12.472656 -19.429688 12.578125 -19.296875 C 12.691406 -19.171875 12.789062 -19.0625 12.875 -18.96875 C 12.96875 -18.882812 13.117188 -18.785156 13.328125 -18.671875 C 13.546875 -18.566406 13.71875 -18.488281 13.84375 -18.4375 C 13.976562 -18.382812 14.1875 -18.300781 14.46875 -18.1875 C 14.757812 -18.082031 14.976562 -18.003906 15.125 -17.953125 C 15.269531 -17.898438 15.507812 -17.816406 15.84375 -17.703125 C 16.1875 -17.597656 16.445312 -17.53125 16.625 -17.5 C 17.75 -17.175781 18.722656 -16.816406 19.546875 -16.421875 C 20.378906 -16.023438 21.253906 -15.484375 22.171875 -14.796875 C 23.085938 -14.109375 23.796875 -13.242188 24.296875 -12.203125 C 24.804688 -11.160156 25.0625 -9.972656 25.0625 -8.640625 C 25.0625 -2.335938 20.6875 0.8125 11.9375 0.8125 C 9.957031 0.8125 8.078125 0.503906 6.296875 -0.109375 C 4.515625 -0.722656 3.226562 -1.332031 2.4375 -1.9375 L 1.234375 -2.921875 L 5.125 -9.453125 C 5.414062 -9.203125 5.796875 -8.90625 6.265625 -8.5625 C 6.734375 -8.21875 7.578125 -7.75 8.796875 -7.15625 C 10.023438 -6.5625 11.085938 -6.265625 11.984375 -6.265625 C 13.960938 -6.265625 14.953125 -6.929688 14.953125 -8.265625 C 14.953125 -8.878906 14.703125 -9.351562 14.203125 -9.6875 C 13.703125 -10.03125 12.847656 -10.414062 11.640625 -10.84375 C 10.429688 -11.28125 9.484375 -11.679688 8.796875 -12.046875 C 7.066406 -12.941406 5.695312 -13.957031 4.6875 -15.09375 C 3.6875 -16.226562 3.1875 -17.734375 3.1875 -19.609375 C 3.1875 -22.410156 4.273438 -24.59375 6.453125 -26.15625 C 8.628906 -27.726562 11.570312 -28.515625 15.28125 -28.515625 Z M 15.28125 -28.515625 "/></g></g></g></svg>