<svg width="24" height="24" viewBox="0 0 24 24" fill="none" xmlns="http://www.w3.org/2000/svg">
<path fill-rule="evenodd" clip-rule="evenodd" d="M14.9105 8.07308C15.4781 7.8983 15.7801 7.23647 15.3997 6.78053C15.1321 6.45978 14.8363 6.15549 14.5127 5.87112C11.1264 2.89593 5.96839 3.22801 2.99193 6.61288C0.0154896 9.99775 0.347724 15.1536 3.734 18.1288C7.12029 21.1041 12.2783 20.772 15.2548 17.3871C16.5385 15.9272 17.2067 14.1378 17.28 12.3361C16.5153 12.2221 15.6274 12.3075 14.7852 12.7408C13.9442 13.1735 13.8842 13.591 13.811 14.0993C13.7445 14.5613 13.6673 15.0984 12.9828 15.7903C11.5453 17.2433 9.11502 13.1909 10.3162 11.3705C11.6546 9.51155 13.3964 8.53926 14.9105 8.07308Z" fill="white"/>
<path d="M16.8976 8.6575L16.3877 8.31443L18.074 5.40936C18.3172 4.99024 18.9268 5.00328 19.152 5.43239L19.6236 6.33136L22.2647 3.04126L22.7635 3.40118L20.1173 7.49593C19.86 7.89385 19.2686 7.86449 19.0521 7.44306L18.5676 6.49977L16.8976 8.6575Z" fill="white"/>
<path fill-rule="evenodd" clip-rule="evenodd" d="M16.8639 11.0863L16.5 10.5911L18.471 8.9321C18.8453 8.61706 19.4198 8.84317 19.479 9.32883L19.5508 9.91788L22.3428 8.20499L22.6907 8.71218L19.6743 11.0162C19.294 11.3067 18.7422 11.0715 18.6884 10.5961L18.6173 9.96756L16.8639 11.0863Z" fill="white"/>
</svg>
